<?xml version="1.0" encoding="UTF-8"?>
<svg version="1.1" xmlns="http://www.w3.org/2000/svg" width="184" height="184">
<path d="M0 0 C0.82069977 -0.00335861 1.64139954 -0.00671722 2.48696899 -0.01017761 C5.17785186 -0.01961169 7.86867198 -0.02162698 10.55957031 -0.02270508 C12.44753036 -0.02592317 14.33549017 -0.02928765 16.22344971 -0.03279114 C20.17403745 -0.03876377 24.12460338 -0.04063299 28.07519531 -0.04003906 C33.1093863 -0.03993761 38.14343572 -0.05358066 43.17759323 -0.07081127 C47.07607654 -0.08199218 50.97452629 -0.0839564 54.87302399 -0.08342934 C56.72755673 -0.08460064 58.5820906 -0.08897403 60.43660736 -0.0967617 C78.38000588 -0.16505304 95.22081554 0.76464265 109.38769531 13.14526367 C109.98066406 13.6222168 110.57363281 14.09916992 111.18457031 14.59057617 C121.17412123 23.38668517 125.55197351 37.44896469 126.56233215 50.38041878 C126.83972743 56.34117774 126.80859138 62.30453447 126.78613281 68.27026367 C126.78815975 70.18969838 126.79107632 72.10913234 126.79483032 74.02856445 C126.79922452 78.02912816 126.7929171 82.02948935 126.77880859 86.0300293 C126.76171857 91.12000659 126.77157547 96.20950906 126.78952599 101.29946899 C126.80044288 105.25638308 126.79688151 109.21318732 126.78914261 113.17010498 C126.78716237 115.04530902 126.78952193 116.92052353 126.79658127 118.79571533 C126.85222923 137.72488364 125.03417221 155.98591502 111.07519531 170.20776367 C99.53366404 180.94517186 85.16295184 184.28416638 69.73706055 184.30639648 C68.90021225 184.31136139 68.06336395 184.31632629 67.20115662 184.32144165 C64.44952551 184.3359707 61.69795213 184.34285112 58.94628906 184.34838867 C57.52583125 184.35262974 57.52583125 184.35262974 56.07667732 184.35695648 C51.0614507 184.37191458 46.04625257 184.38116434 41.03100586 184.38549805 C35.88594557 184.39096581 30.74115215 184.41496774 25.59617519 184.44347 C21.60925063 184.46222488 17.62238858 184.46730885 13.63542366 184.46883392 C11.74066783 184.471834 9.84591238 184.47977143 7.95120049 184.4930191 C-10.81246542 184.61480961 -28.54571043 182.92389727 -43.04980469 169.58276367 C-57.01018429 154.40544308 -58.08523506 135.78995502 -58.01074219 116.27416992 C-58.01276939 114.37955107 -58.01568617 112.48493299 -58.0194397 110.59031677 C-58.02383374 106.6410267 -58.01752772 102.69194178 -58.00341797 98.74267578 C-57.98633978 93.72229679 -57.99617746 88.70239964 -58.01413536 83.68203831 C-58.0250628 79.7756956 -58.02148595 75.86946396 -58.01375198 71.9631176 C-58.01177402 70.11385984 -58.01412298 68.26459145 -58.02119064 66.41534615 C-58.07769494 47.48116199 -56.50571323 29.35876935 -43.04980469 14.70776367 C-31.13737858 3.65142935 -15.86674935 -0.00950446 0 0 Z M-32.61230469 30.14526367 C-42.34328921 41.98024485 -40.77271862 59.23584702 -40.78027344 73.62963867 C-40.78349912 75.09873484 -40.78686409 76.56783071 -40.7903595 78.03692627 C-40.79630356 81.09941348 -40.79820431 84.16187267 -40.79760742 87.22436523 C-40.79750606 91.10118953 -40.8111528 94.97782963 -40.82837963 98.85461044 C-40.83963221 101.88511948 -40.84152262 104.91558582 -40.8409977 107.94611359 C-40.84215818 109.37309656 -40.84646755 110.80008137 -40.85433006 112.22704315 C-41.01374275 136.72054651 -41.01374275 136.72054651 -29.38964844 157.42651367 C-17.61146079 168.81640942 0.02187506 167.30553217 15.24707031 167.31323242 C16.76483184 167.31645635 18.28259308 167.31982121 19.800354 167.32331848 C22.9671704 167.32926928 26.13395967 167.33116259 29.30078125 167.33056641 C33.31561358 167.33046503 37.3302681 167.34411013 41.34505844 167.36133862 C44.47675338 167.37257528 47.60840692 167.37448207 50.74011993 167.37395668 C52.21816876 167.37511959 53.69621928 167.37944356 55.17424774 167.38728905 C78.91022268 167.66665582 78.91022268 167.66665582 99.26269531 157.02026367 C110.56129536 144.7452414 109.70408964 126.62986396 109.65332031 110.89526367 C109.65467366 109.38321877 109.6566197 107.8711743 109.65911865 106.35913086 C109.66203852 103.21618436 109.65787497 100.07335286 109.6484375 96.93041992 C109.63704488 92.94707071 109.64362143 88.96399123 109.65558243 84.98065186 C109.66288684 81.86610972 109.66047425 78.75162918 109.65532684 75.63708496 C109.65401392 74.17020636 109.65555294 72.70332175 109.66028595 71.2364502 C109.70076151 55.17668109 109.72304428 39.17952029 98.16503906 26.86401367 C86.2735729 15.36457386 68.25863344 16.98535441 52.90332031 16.97729492 C51.43422414 16.97406924 49.96512827 16.97070427 48.49603271 16.96720886 C45.4335455 16.9612648 42.37108631 16.95936405 39.30859375 16.95996094 C35.43176946 16.9600623 31.55512936 16.94641556 27.67834854 16.92918873 C24.64783951 16.91793615 21.61737316 16.91604574 18.5868454 16.91657066 C17.15986243 16.91541018 15.73287761 16.91110081 14.30591583 16.9032383 C-3.11721123 16.81621071 -19.82440598 16.92141387 -32.61230469 30.14526367 Z " fill="#E23C78" transform="translate(57.6123046875,-0.145263671875)"/>
<path d="M0 0 C10.53846357 8.77586843 17.8976876 19.84890672 19.3125 33.75 C20.5703535 47.72360889 16.16012076 60.13144284 7.5 71.03125 C-2.06865162 81.39728926 -14.77449898 86.56597996 -28.75 87.125 C-42.11725562 86.62670684 -53.72893753 81.38904026 -63.359375 72.2734375 C-72.50696721 62.35842983 -77.04243975 50.60683652 -76.83984375 37.16796875 C-75.95046612 23.05194938 -70.19557881 11.72816307 -60 2.0625 C-42.95023718 -12.09077802 -17.94022565 -13.34874417 0 0 Z M-52.6875 19.75 C-58.21167009 27.88509625 -59.53295663 34.96685898 -58.6875 44.75 C-56.67852763 53.19736575 -52.15711987 59.68287082 -45.0234375 64.578125 C-36.77098329 69.2378221 -29.15831659 70.31507728 -19.92578125 68.08203125 C-11.37418193 65.08307835 -5.62277637 59.9799988 -1.1875 52.125 C2.55271607 43.94966432 2.72170912 35.91141292 -0.25 27.4375 C-4.18617736 18.95957953 -10.13226684 13.43460134 -18.6875 9.75 C-31.31684618 5.73741751 -44.12076207 10.00295595 -52.6875 19.75 Z " fill="#FE296D" transform="translate(120.6875,53.25)"/>
<path d="M0 0 C3.01090912 2.70209792 3.87374827 4.537077 4.9375 8.4375 C5.01037534 12.5913945 4.27287987 14.55149262 2 18 C-1.75997044 21.41815495 -4.65827023 21.55714883 -9.5859375 21.43359375 C-13.22632031 20.77973858 -14.82682783 18.87419545 -17 16 C-17.33 15.67 -17.66 15.34 -18 15 C-18.53735872 10.24305393 -18.68144116 6.25804521 -16.375 2 C-11.10026108 -2.44188541 -6.15286801 -2.75501553 0 0 Z " fill="#FE00BB" transform="translate(148,33)"/>
<path d="M0 0 C0.33 0 0.66 0 1 0 C1.1875 2.375 1.1875 2.375 1 5 C-1.66559313 6.77706209 -4.0280615 7.87548273 -7 9 C-7.33 8.01 -7.66 7.02 -8 6 C-9.1446875 6.4640625 -9.1446875 6.4640625 -10.3125 6.9375 C-12.18789677 7.67893593 -14.08684652 8.36228217 -16 9 C-15.67 7.68 -15.34 6.36 -15 5 C-11.30847472 3.81871191 -8.58280588 2.98900366 -4.6875 3.0625 C-3.800625 3.041875 -2.91375 3.02125 -2 3 C-1.34 2.01 -0.68 1.02 0 0 Z " fill="#FB1DA5" transform="translate(16,72)"/>
</svg>
